%TF.GenerationSoftware,Flux,Pcbnew,7.0.11-7.0.11~ubuntu20.04.1*%
%TF.CreationDate,2024-10-19T07:10:41+00:00*%
%TF.ProjectId,input,696e7075-742e-46b6-9963-61645f706362,rev?*%
%TF.SameCoordinates,Original*%
%TF.FileFunction,Copper,L1,Top*%
%TF.FilePolarity,Positive*%
%FSLAX46Y46*%
G04 Gerber Fmt 4.6, Leading zero omitted, Abs format (unit mm)*
G04 Filename: hackpad*
G04 Build it with Flux! Visit our site at: https://www.flux.ai (PCBNEW 7.0.11-7.0.11~ubuntu20.04.1) date 2024-10-19 07:10:41*
%MOMM*%
%LPD*%
G01*
G04 APERTURE LIST*
G04 Aperture macros list*
%AMFreePoly0*
4,1,5,1.500000,-0.900000,-1.500000,-0.900000,-1.500000,0.900000,1.500000,0.900000,1.500000,-0.900000,1.500000,-0.900000,$1*%
%AMFreePoly1*
4,1,5,0.750000,-0.750000,-0.750000,-0.750000,-0.750000,0.750000,0.750000,0.750000,0.750000,-0.750000,0.750000,-0.750000,$1*%
G04 Aperture macros list end*
%TA.AperFunction,ComponentPad*%
%ADD10C,2.200000*%
%TD*%
%TA.AperFunction,ComponentPad*%
%ADD11O,3.000000X1.800000*%
%TD*%
%TA.AperFunction,ComponentPad*%
%ADD12FreePoly0,0.000000*%
%TD*%
%TA.AperFunction,ComponentPad*%
%ADD13C,1.700000*%
%TD*%
%TA.AperFunction,ComponentPad*%
%ADD14C,4.500000*%
%TD*%
%TA.AperFunction,ComponentPad*%
%ADD15C,1.500000*%
%TD*%
%TA.AperFunction,ComponentPad*%
%ADD16FreePoly1,0.000000*%
%TD*%
%TA.AperFunction,Conductor*%
%ADD17C,0.254000*%
%TD*%
G04 APERTURE END LIST*
D10*
%TO.P,,1*%
%TO.N,N/C*%
X2540000Y-17886200D03*
%TO.P,,2*%
X-3810000Y-20426200D03*
%TO.P,,1*%
X-17363600Y0D03*
%TO.P,,2*%
X-23713600Y-2540000D03*
%TO.P,,1*%
X20319800Y-17886200D03*
%TO.P,,2*%
X13969800Y-20426200D03*
D11*
%TO.P,,P29_A3_D3*%
X-24983600Y22921500D03*
%TO.P,,5V*%
X-9743600Y30541500D03*
%TO.P,,P6_SDA_D4*%
X-24983600Y20381500D03*
%TO.P,,D7_CSn_P1_RX*%
X-9743600Y15301500D03*
%TO.P,,D9_MISO_P4*%
X-9743600Y20381500D03*
%TO.P,,P28_A2_D2*%
X-24983600Y25461500D03*
%TO.P,,3V3*%
X-9743600Y25461500D03*
%TO.P,,D8_SCK_P2*%
X-9743600Y17841500D03*
%TO.P,,D10_MOSI_P3*%
X-9743600Y22921500D03*
%TO.P,,P27_A1_D1*%
X-24983600Y28001500D03*
D12*
%TO.P,,P26_A0_D0*%
X-24983600Y30541500D03*
D11*
%TO.P,,P0_TX_D6*%
X-24983600Y15301500D03*
%TO.P,,P7_SCL_D5*%
X-24983600Y17841500D03*
%TO.P,,GND*%
X-9743600Y28001500D03*
D10*
%TO.P,,1*%
X-17363600Y-17886200D03*
%TO.P,,2*%
X-23713600Y-20426200D03*
D13*
%TO.P,,VDD*%
X12780000Y29741600D03*
%TO.P,,GND*%
X10240000Y29741600D03*
%TO.P,,SCK*%
X15320000Y29741600D03*
%TO.P,,SDA*%
X17860000Y29741600D03*
D14*
%TO.P,,MH2*%
X23320000Y-4830000D03*
D15*
%TO.P,,NO*%
X20320000Y2170000D03*
D16*
%TO.P,,CW*%
X15320000Y-12330000D03*
D14*
%TO.P,,MH1*%
X12320000Y-4830000D03*
D15*
%TO.P,,CCW*%
X20320000Y-12330000D03*
%TO.P,,WIPER*%
X17820000Y-12330000D03*
%TO.P,,COM*%
X15320000Y2170000D03*
D10*
%TO.P,,1*%
X2540000Y0D03*
%TO.P,,2*%
X-3810000Y-2540000D03*
%TD*%
D17*
%TO.N,Net 6*%
X-26745800Y-30733100D02*
X-28654400Y-28824500D01*
X-24983600Y20381500D02*
X-24062000Y20381500D01*
X13969800Y-25353300D02*
X8590000Y-30733100D01*
X-28654400Y16710700D02*
X-28654400Y-28824500D01*
X8590000Y-30733100D02*
X-26745800Y-30733100D01*
X13969800Y-20426200D02*
X13969800Y-25353200D01*
X-28654400Y16710700D02*
X-24983600Y20381500D01*
%TO.N,Net 8*%
X20320000Y-12330000D02*
X24960200Y-12330000D01*
X-16057900Y32269400D02*
X-16057900Y26767200D01*
X30961300Y-6328900D02*
X30961300Y31911900D01*
X30961300Y31911900D02*
X31318700Y32269300D01*
X31318700Y32269300D02*
X-16057900Y32269300D01*
X-16057800Y26767300D02*
X-24983600Y17841500D01*
X24960300Y-12330000D02*
X30961300Y-6329000D01*
%TO.N,Net 7*%
X13150000Y0D02*
X15320000Y2170000D01*
X15320000Y2170000D02*
X15320000Y24661600D01*
X2540000Y-17886200D02*
X20319800Y-17886200D01*
X-17363600Y0D02*
X-17363600Y-17886200D01*
X-17363600Y-17886200D02*
X2540000Y-17886200D01*
X10240000Y29741600D02*
X-8003600Y29741600D01*
X2540000Y-17886200D02*
X2540000Y0D01*
X-8003600Y29741600D02*
X-9743600Y28001500D01*
X2540000Y0D02*
X13150000Y0D01*
X15320000Y24661600D02*
X10240000Y29741600D01*
%TD*%
M02*
