%TF.GenerationSoftware,Flux,Pcbnew,7.0.11-7.0.11~ubuntu20.04.1*%
%TF.CreationDate,2024-10-19T07:10:41+00:00*%
%TF.ProjectId,input,696e7075-742e-46b6-9963-61645f706362,rev?*%
%TF.SameCoordinates,Original*%
%TF.FileFunction,Copper,L4,Bot*%
%TF.FilePolarity,Positive*%
%FSLAX46Y46*%
G04 Gerber Fmt 4.6, Leading zero omitted, Abs format (unit mm)*
G04 Filename: hackpad*
G04 Build it with Flux! Visit our site at: https://www.flux.ai (PCBNEW 7.0.11-7.0.11~ubuntu20.04.1) date 2024-10-19 07:10:41*
%MOMM*%
%LPD*%
G01*
G04 APERTURE LIST*
G04 Aperture macros list*
%AMFreePoly0*
4,1,5,1.500000,-0.900000,-1.500000,-0.900000,-1.500000,0.900000,1.500000,0.900000,1.500000,-0.900000,1.500000,-0.900000,$1*%
%AMFreePoly1*
4,1,5,0.750000,-0.750000,-0.750000,-0.750000,-0.750000,0.750000,0.750000,0.750000,0.750000,-0.750000,0.750000,-0.750000,$1*%
G04 Aperture macros list end*
%TA.AperFunction,ComponentPad*%
%ADD10C,2.200000*%
%TD*%
%TA.AperFunction,ComponentPad*%
%ADD11O,3.000000X1.800000*%
%TD*%
%TA.AperFunction,ComponentPad*%
%ADD12FreePoly0,0.000000*%
%TD*%
%TA.AperFunction,ComponentPad*%
%ADD13C,1.700000*%
%TD*%
%TA.AperFunction,ComponentPad*%
%ADD14C,4.500000*%
%TD*%
%TA.AperFunction,ComponentPad*%
%ADD15C,1.500000*%
%TD*%
%TA.AperFunction,ComponentPad*%
%ADD16FreePoly1,0.000000*%
%TD*%
%TA.AperFunction,Conductor*%
%ADD17C,0.254000*%
%TD*%
G04 APERTURE END LIST*
D10*
%TO.P,,1*%
%TO.N,N/C*%
X2540000Y-17886200D03*
%TO.P,,2*%
X-3810000Y-20426200D03*
%TO.P,,1*%
X-17363600Y0D03*
%TO.P,,2*%
X-23713600Y-2540000D03*
%TO.P,,1*%
X20319800Y-17886200D03*
%TO.P,,2*%
X13969800Y-20426200D03*
D11*
%TO.P,,P29_A3_D3*%
X-24983600Y22921500D03*
%TO.P,,5V*%
X-9743600Y30541500D03*
%TO.P,,P6_SDA_D4*%
X-24983600Y20381500D03*
%TO.P,,D7_CSn_P1_RX*%
X-9743600Y15301500D03*
%TO.P,,D9_MISO_P4*%
X-9743600Y20381500D03*
%TO.P,,P28_A2_D2*%
X-24983600Y25461500D03*
%TO.P,,3V3*%
X-9743600Y25461500D03*
%TO.P,,D8_SCK_P2*%
X-9743600Y17841500D03*
%TO.P,,D10_MOSI_P3*%
X-9743600Y22921500D03*
%TO.P,,P27_A1_D1*%
X-24983600Y28001500D03*
D12*
%TO.P,,P26_A0_D0*%
X-24983600Y30541500D03*
D11*
%TO.P,,P0_TX_D6*%
X-24983600Y15301500D03*
%TO.P,,P7_SCL_D5*%
X-24983600Y17841500D03*
%TO.P,,GND*%
X-9743600Y28001500D03*
D10*
%TO.P,,1*%
X-17363600Y-17886200D03*
%TO.P,,2*%
X-23713600Y-20426200D03*
D13*
%TO.P,,VDD*%
X12780000Y29741600D03*
%TO.P,,GND*%
X10240000Y29741600D03*
%TO.P,,SCK*%
X15320000Y29741600D03*
%TO.P,,SDA*%
X17860000Y29741600D03*
D14*
%TO.P,,MH2*%
X23320000Y-4830000D03*
D15*
%TO.P,,NO*%
X20320000Y2170000D03*
D16*
%TO.P,,CW*%
X15320000Y-12330000D03*
D14*
%TO.P,,MH1*%
X12320000Y-4830000D03*
D15*
%TO.P,,CCW*%
X20320000Y-12330000D03*
%TO.P,,WIPER*%
X17820000Y-12330000D03*
%TO.P,,COM*%
X15320000Y2170000D03*
D10*
%TO.P,,1*%
X2540000Y0D03*
%TO.P,,2*%
X-3810000Y-2540000D03*
%TD*%
D17*
%TO.N,Net 10*%
X12780000Y29741600D02*
X10604600Y27566200D01*
X-7639000Y27566100D02*
X-9743600Y25461500D01*
X10604600Y27566200D02*
X-7639000Y27566200D01*
%TO.N,Net 5*%
X-7410900Y-31543500D02*
X27037900Y-31543500D01*
X24005700Y-19792600D02*
X27639200Y-23426100D01*
X-14784200Y5102100D02*
X-24983600Y15301500D01*
X24005700Y-18515700D02*
X24005700Y-19792700D01*
X-7410900Y-31543500D02*
X-9743600Y-29210800D01*
X-12169100Y-7227700D02*
X-12169100Y4771100D01*
X-12500200Y5102100D02*
X-14784200Y5102100D01*
X27639200Y-30942200D02*
X27639200Y-23426100D01*
X-9743600Y-10264800D02*
X-9743600Y-9653200D01*
X27037900Y-31543500D02*
X27639200Y-30942200D01*
X-9743600Y-9653300D02*
X-12169200Y-7227700D01*
X-9743600Y-29210800D02*
X-9743600Y-10264800D01*
X-12169100Y4771100D02*
X-12500100Y5102100D01*
X17820000Y-12330000D02*
X24005600Y-18515600D01*
%TO.N,Net 9*%
X13692400Y-12330100D02*
X8590000Y-7227700D01*
X6089600Y9712100D02*
X-4154200Y9712100D01*
X8590000Y-7227700D02*
X8590000Y7211700D01*
X15319900Y-12330000D02*
X13692300Y-12330000D01*
X8590000Y7211700D02*
X6089600Y9712100D01*
X-4154200Y9712100D02*
X-9743600Y15301500D01*
%TO.N,Net 11*%
X8735400Y18371600D02*
X-9213400Y18371600D01*
X-9213400Y18371700D02*
X-9743600Y17841500D01*
X17860000Y27496200D02*
X8735400Y18371600D01*
X17860000Y29741600D02*
X17860000Y27496200D01*
%TO.N,Net 3*%
X-23713600Y-20426200D02*
X-23713600Y-17632600D01*
X-30828500Y19616600D02*
X-24983600Y25461500D01*
X-30828500Y19616600D02*
X-30828500Y-10517700D01*
X-23713600Y-17632600D02*
X-30828500Y-10517700D01*
%TO.N,Net 12*%
X8735400Y22921500D02*
X-7203600Y22921500D01*
X15320000Y29741600D02*
X15320000Y29506200D01*
X-7203600Y22921500D02*
X-9743600Y20381500D01*
X15320000Y29506100D02*
X8735400Y22921500D01*
%TO.N,Net 4*%
X-9743600Y-8106100D02*
X-9743600Y7681500D01*
X-3810000Y-20426200D02*
X-3810000Y-14039600D01*
X-3810000Y-14039700D02*
X-9743600Y-8106100D01*
X-9743600Y7681500D02*
X-24983600Y22921500D01*
%TO.N,Net 1*%
X-24983600Y30541400D02*
X-32113900Y30541400D01*
X-32113900Y-28824500D02*
X-32113900Y30541400D01*
X-23713600Y-2540100D02*
X-23713600Y-10229700D01*
X-19903600Y-14039700D02*
X-19903600Y-30161900D01*
X-26966500Y-33971900D02*
X-32113900Y-28824500D01*
X-23713600Y-33971900D02*
X-26966600Y-33971900D01*
X-23713600Y-10229700D02*
X-19903600Y-14039700D01*
X-19903600Y-30161900D02*
X-23713600Y-33971900D01*
%TO.N,Net 2*%
X-3810000Y6827900D02*
X-24983600Y28001500D01*
X-3810000Y-2540000D02*
X-3810000Y6828000D01*
%TD*%
M02*
